<mxfile host="app.diagrams.net" modified="2021-01-06T15:46:54.635Z" agent="5.0 (X11)" etag="5knzhZ5D3o3p7Ls5hCjI" version="14.1.8" type="github">
  <diagram id="lDJxzJ-SNwr0Hjrm1M_N" name="Page-1">
    <mxGraphModel dx="1350" dy="804" grid="1" gridSize="10" guides="1" tooltips="1" connect="1" arrows="1" fold="1" page="1" pageScale="1" pageWidth="850" pageHeight="1100" math="0" shadow="0">
      <root>
        <mxCell id="0" />
        <mxCell id="1" parent="0" />
        <mxCell id="JCRJsU1HNMxGholNaX2s-37" style="edgeStyle=none;rounded=0;orthogonalLoop=1;jettySize=auto;html=1;endArrow=none;endFill=0;" edge="1" parent="1" source="JCRJsU1HNMxGholNaX2s-75" target="JCRJsU1HNMxGholNaX2s-32">
          <mxGeometry relative="1" as="geometry">
            <mxPoint x="670" y="1800" as="sourcePoint" />
          </mxGeometry>
        </mxCell>
        <mxCell id="JCRJsU1HNMxGholNaX2s-30" value="" style="group" vertex="1" connectable="0" parent="1">
          <mxGeometry x="610" y="1840" width="140" height="240" as="geometry" />
        </mxCell>
        <mxCell id="JCRJsU1HNMxGholNaX2s-31" value="Enregistrer la date et la quantité de fabrication" style="rounded=0;whiteSpace=wrap;html=1;" vertex="1" parent="JCRJsU1HNMxGholNaX2s-30">
          <mxGeometry y="72" width="140" height="168" as="geometry" />
        </mxCell>
        <mxCell id="JCRJsU1HNMxGholNaX2s-32" value="" style="triangle;whiteSpace=wrap;html=1;rotation=0;direction=south;" vertex="1" parent="JCRJsU1HNMxGholNaX2s-30">
          <mxGeometry x="15.555555555555555" width="108.88888888888889" height="72" as="geometry" />
        </mxCell>
        <mxCell id="JCRJsU1HNMxGholNaX2s-33" value="" style="shape=table;html=1;whiteSpace=wrap;startSize=0;container=1;collapsible=0;childLayout=tableLayout;" vertex="1" parent="JCRJsU1HNMxGholNaX2s-30">
          <mxGeometry y="208.0032" width="140" height="31.996799999999997" as="geometry" />
        </mxCell>
        <mxCell id="JCRJsU1HNMxGholNaX2s-34" value="" style="shape=partialRectangle;html=1;whiteSpace=wrap;collapsible=0;dropTarget=0;pointerEvents=0;fillColor=none;top=0;left=0;bottom=0;right=0;points=[[0,0.5],[1,0.5]];portConstraint=eastwest;" vertex="1" parent="JCRJsU1HNMxGholNaX2s-33">
          <mxGeometry width="140" height="32" as="geometry" />
        </mxCell>
        <mxCell id="JCRJsU1HNMxGholNaX2s-35" value="Toujours" style="shape=partialRectangle;html=1;whiteSpace=wrap;connectable=0;fillColor=none;top=0;left=0;bottom=0;right=0;overflow=hidden;" vertex="1" parent="JCRJsU1HNMxGholNaX2s-34">
          <mxGeometry width="140" height="32" as="geometry" />
        </mxCell>
        <mxCell id="JCRJsU1HNMxGholNaX2s-38" value="Données de fabrication enregistrées" style="ellipse;whiteSpace=wrap;html=1;rounded=0;" vertex="1" parent="1">
          <mxGeometry x="620" y="2120" width="120" height="80" as="geometry" />
        </mxCell>
        <mxCell id="JCRJsU1HNMxGholNaX2s-39" value="" style="edgeStyle=none;rounded=0;orthogonalLoop=1;jettySize=auto;html=1;endArrow=none;endFill=0;" edge="1" parent="1" source="JCRJsU1HNMxGholNaX2s-31" target="JCRJsU1HNMxGholNaX2s-38">
          <mxGeometry relative="1" as="geometry" />
        </mxCell>
        <mxCell id="JCRJsU1HNMxGholNaX2s-40" style="edgeStyle=none;rounded=0;orthogonalLoop=1;jettySize=auto;html=1;endArrow=none;endFill=0;" edge="1" parent="1" source="JCRJsU1HNMxGholNaX2s-159" target="JCRJsU1HNMxGholNaX2s-60">
          <mxGeometry relative="1" as="geometry">
            <mxPoint x="810" y="540" as="sourcePoint" />
            <mxPoint x="550" y="600" as="targetPoint" />
          </mxGeometry>
        </mxCell>
        <mxCell id="JCRJsU1HNMxGholNaX2s-58" value="" style="group" vertex="1" connectable="0" parent="1">
          <mxGeometry x="740" y="600" width="140" height="240" as="geometry" />
        </mxCell>
        <mxCell id="JCRJsU1HNMxGholNaX2s-59" value="Traiter la demande" style="rounded=0;whiteSpace=wrap;html=1;" vertex="1" parent="JCRJsU1HNMxGholNaX2s-58">
          <mxGeometry y="72" width="140" height="168" as="geometry" />
        </mxCell>
        <mxCell id="JCRJsU1HNMxGholNaX2s-60" value="" style="triangle;whiteSpace=wrap;html=1;rotation=0;direction=south;" vertex="1" parent="JCRJsU1HNMxGholNaX2s-58">
          <mxGeometry x="15.555555555555555" width="108.88888888888889" height="72" as="geometry" />
        </mxCell>
        <mxCell id="JCRJsU1HNMxGholNaX2s-61" value="" style="shape=table;html=1;whiteSpace=wrap;startSize=0;container=1;collapsible=0;childLayout=tableLayout;" vertex="1" parent="JCRJsU1HNMxGholNaX2s-58">
          <mxGeometry y="208" width="140" height="32" as="geometry" />
        </mxCell>
        <mxCell id="JCRJsU1HNMxGholNaX2s-62" value="" style="shape=partialRectangle;html=1;whiteSpace=wrap;collapsible=0;dropTarget=0;pointerEvents=0;fillColor=none;top=0;left=0;bottom=0;right=0;points=[[0,0.5],[1,0.5]];portConstraint=eastwest;" vertex="1" parent="JCRJsU1HNMxGholNaX2s-61">
          <mxGeometry width="140" height="32" as="geometry" />
        </mxCell>
        <mxCell id="JCRJsU1HNMxGholNaX2s-66" value="Fabrication possible" style="shape=partialRectangle;html=1;whiteSpace=wrap;connectable=0;fillColor=none;top=0;left=0;bottom=0;right=0;overflow=hidden;" vertex="1" parent="JCRJsU1HNMxGholNaX2s-62">
          <mxGeometry width="70" height="32" as="geometry" />
        </mxCell>
        <mxCell id="JCRJsU1HNMxGholNaX2s-63" value="Produits manquants" style="shape=partialRectangle;html=1;whiteSpace=wrap;connectable=0;fillColor=none;top=0;left=0;bottom=0;right=0;overflow=hidden;" vertex="1" parent="JCRJsU1HNMxGholNaX2s-62">
          <mxGeometry x="70" width="70" height="32" as="geometry" />
        </mxCell>
        <mxCell id="JCRJsU1HNMxGholNaX2s-167" style="edgeStyle=none;rounded=0;orthogonalLoop=1;jettySize=auto;html=1;endArrow=none;endFill=0;" edge="1" parent="1" source="JCRJsU1HNMxGholNaX2s-72" target="JCRJsU1HNMxGholNaX2s-92">
          <mxGeometry relative="1" as="geometry" />
        </mxCell>
        <mxCell id="JCRJsU1HNMxGholNaX2s-72" value="Pas assez de ressources" style="ellipse;whiteSpace=wrap;html=1;" vertex="1" parent="1">
          <mxGeometry x="990" y="880" width="120" height="80" as="geometry" />
        </mxCell>
        <mxCell id="JCRJsU1HNMxGholNaX2s-75" value="Fabrication lancée" style="ellipse;whiteSpace=wrap;html=1;" vertex="1" parent="1">
          <mxGeometry x="620" y="880" width="120" height="80" as="geometry" />
        </mxCell>
        <mxCell id="JCRJsU1HNMxGholNaX2s-90" value="" style="group" vertex="1" connectable="0" parent="1">
          <mxGeometry x="960" y="1000" width="180" height="300" as="geometry" />
        </mxCell>
        <mxCell id="JCRJsU1HNMxGholNaX2s-91" value="Négocier avec le client" style="rounded=0;whiteSpace=wrap;html=1;" vertex="1" parent="JCRJsU1HNMxGholNaX2s-90">
          <mxGeometry y="90" width="180" height="110" as="geometry" />
        </mxCell>
        <mxCell id="JCRJsU1HNMxGholNaX2s-92" value="" style="triangle;whiteSpace=wrap;html=1;rotation=0;direction=south;" vertex="1" parent="JCRJsU1HNMxGholNaX2s-90">
          <mxGeometry x="20" width="140" height="90" as="geometry" />
        </mxCell>
        <mxCell id="JCRJsU1HNMxGholNaX2s-93" value="" style="shape=table;html=1;whiteSpace=wrap;startSize=0;container=1;collapsible=0;childLayout=tableLayout;" vertex="1" parent="JCRJsU1HNMxGholNaX2s-90">
          <mxGeometry y="160" width="180" height="40" as="geometry" />
        </mxCell>
        <mxCell id="JCRJsU1HNMxGholNaX2s-94" value="" style="shape=partialRectangle;html=1;whiteSpace=wrap;collapsible=0;dropTarget=0;pointerEvents=0;fillColor=none;top=0;left=0;bottom=0;right=0;points=[[0,0.5],[1,0.5]];portConstraint=eastwest;" vertex="1" parent="JCRJsU1HNMxGholNaX2s-93">
          <mxGeometry width="180" height="40" as="geometry" />
        </mxCell>
        <mxCell id="JCRJsU1HNMxGholNaX2s-95" value="Délai accordé" style="shape=partialRectangle;html=1;whiteSpace=wrap;connectable=0;fillColor=none;top=0;left=0;bottom=0;right=0;overflow=hidden;" vertex="1" parent="JCRJsU1HNMxGholNaX2s-94">
          <mxGeometry width="90" height="40" as="geometry" />
        </mxCell>
        <mxCell id="JCRJsU1HNMxGholNaX2s-96" value="Délai non accordé" style="shape=partialRectangle;html=1;whiteSpace=wrap;connectable=0;fillColor=none;top=0;left=0;bottom=0;right=0;overflow=hidden;" vertex="1" parent="JCRJsU1HNMxGholNaX2s-94">
          <mxGeometry x="90" width="90" height="40" as="geometry" />
        </mxCell>
        <mxCell id="JCRJsU1HNMxGholNaX2s-103" value="" style="group" vertex="1" connectable="0" parent="1">
          <mxGeometry x="870" y="1360" width="130" height="240" as="geometry" />
        </mxCell>
        <mxCell id="JCRJsU1HNMxGholNaX2s-104" value="Commander du tissu" style="rounded=0;whiteSpace=wrap;html=1;" vertex="1" parent="JCRJsU1HNMxGholNaX2s-103">
          <mxGeometry y="72" width="130" height="128" as="geometry" />
        </mxCell>
        <mxCell id="JCRJsU1HNMxGholNaX2s-105" value="&lt;div&gt;MR OU BT&lt;/div&gt;&lt;div&gt;&lt;br&gt;&lt;/div&gt;&lt;div&gt;&lt;br&gt;&lt;/div&gt;" style="triangle;whiteSpace=wrap;html=1;rotation=0;direction=south;" vertex="1" parent="JCRJsU1HNMxGholNaX2s-103">
          <mxGeometry x="14.444444444444445" width="101.11111111111111" height="72" as="geometry" />
        </mxCell>
        <mxCell id="JCRJsU1HNMxGholNaX2s-106" value="" style="shape=table;html=1;whiteSpace=wrap;startSize=0;container=1;collapsible=0;childLayout=tableLayout;" vertex="1" parent="JCRJsU1HNMxGholNaX2s-103">
          <mxGeometry y="168" width="130" height="32" as="geometry" />
        </mxCell>
        <mxCell id="JCRJsU1HNMxGholNaX2s-107" value="" style="shape=partialRectangle;html=1;whiteSpace=wrap;collapsible=0;dropTarget=0;pointerEvents=0;fillColor=none;top=0;left=0;bottom=0;right=0;points=[[0,0.5],[1,0.5]];portConstraint=eastwest;" vertex="1" parent="JCRJsU1HNMxGholNaX2s-106">
          <mxGeometry width="130" height="32" as="geometry" />
        </mxCell>
        <mxCell id="JCRJsU1HNMxGholNaX2s-108" value="Toujours" style="shape=partialRectangle;html=1;whiteSpace=wrap;connectable=0;fillColor=none;top=0;left=0;bottom=0;right=0;overflow=hidden;" vertex="1" parent="JCRJsU1HNMxGholNaX2s-107">
          <mxGeometry width="130" height="32" as="geometry" />
        </mxCell>
        <mxCell id="JCRJsU1HNMxGholNaX2s-157" style="edgeStyle=none;rounded=0;orthogonalLoop=1;jettySize=auto;html=1;endArrow=none;endFill=0;" edge="1" parent="1" source="JCRJsU1HNMxGholNaX2s-109" target="JCRJsU1HNMxGholNaX2s-32">
          <mxGeometry relative="1" as="geometry" />
        </mxCell>
        <mxCell id="JCRJsU1HNMxGholNaX2s-109" value="Tissu commandé" style="ellipse;whiteSpace=wrap;html=1;rounded=0;" vertex="1" parent="1">
          <mxGeometry x="875" y="1640" width="120" height="80" as="geometry" />
        </mxCell>
        <mxCell id="JCRJsU1HNMxGholNaX2s-110" value="" style="edgeStyle=none;rounded=0;orthogonalLoop=1;jettySize=auto;html=1;endArrow=none;endFill=0;" edge="1" parent="1" source="JCRJsU1HNMxGholNaX2s-104" target="JCRJsU1HNMxGholNaX2s-109">
          <mxGeometry relative="1" as="geometry" />
        </mxCell>
        <mxCell id="JCRJsU1HNMxGholNaX2s-111" style="edgeStyle=none;rounded=0;orthogonalLoop=1;jettySize=auto;html=1;endArrow=none;endFill=0;" edge="1" parent="1" source="JCRJsU1HNMxGholNaX2s-112" target="JCRJsU1HNMxGholNaX2s-105">
          <mxGeometry relative="1" as="geometry" />
        </mxCell>
        <mxCell id="JCRJsU1HNMxGholNaX2s-112" value="&lt;div&gt;Besoin de tissu&lt;/div&gt;&lt;div&gt;(BT)&lt;br&gt;&lt;/div&gt;" style="ellipse;whiteSpace=wrap;html=1;rounded=0;" vertex="1" parent="1">
          <mxGeometry x="875" y="1240" width="120" height="80" as="geometry" />
        </mxCell>
        <mxCell id="JCRJsU1HNMxGholNaX2s-113" style="edgeStyle=none;rounded=0;orthogonalLoop=1;jettySize=auto;html=1;endArrow=none;endFill=0;" edge="1" parent="1" source="JCRJsU1HNMxGholNaX2s-91" target="JCRJsU1HNMxGholNaX2s-112">
          <mxGeometry relative="1" as="geometry" />
        </mxCell>
        <mxCell id="JCRJsU1HNMxGholNaX2s-124" style="edgeStyle=none;rounded=0;orthogonalLoop=1;jettySize=auto;html=1;endArrow=none;endFill=0;" edge="1" parent="1" source="JCRJsU1HNMxGholNaX2s-115" target="JCRJsU1HNMxGholNaX2s-119">
          <mxGeometry relative="1" as="geometry" />
        </mxCell>
        <mxCell id="JCRJsU1HNMxGholNaX2s-115" value="Fabrication à lancer immédiatement" style="ellipse;whiteSpace=wrap;html=1;" vertex="1" parent="1">
          <mxGeometry x="1100" y="1240" width="120" height="80" as="geometry" />
        </mxCell>
        <mxCell id="JCRJsU1HNMxGholNaX2s-116" style="edgeStyle=none;rounded=0;orthogonalLoop=1;jettySize=auto;html=1;endArrow=none;endFill=0;" edge="1" parent="1" source="JCRJsU1HNMxGholNaX2s-91" target="JCRJsU1HNMxGholNaX2s-115">
          <mxGeometry relative="1" as="geometry" />
        </mxCell>
        <mxCell id="JCRJsU1HNMxGholNaX2s-117" value="" style="group" vertex="1" connectable="0" parent="1">
          <mxGeometry x="1086.67" y="1355" width="150" height="250" as="geometry" />
        </mxCell>
        <mxCell id="JCRJsU1HNMxGholNaX2s-118" value="Demander à un sous-traitant de fabriquer la commande" style="rounded=0;whiteSpace=wrap;html=1;" vertex="1" parent="JCRJsU1HNMxGholNaX2s-117">
          <mxGeometry y="75" width="150" height="175" as="geometry" />
        </mxCell>
        <mxCell id="JCRJsU1HNMxGholNaX2s-119" value="" style="triangle;whiteSpace=wrap;html=1;rotation=0;direction=south;" vertex="1" parent="JCRJsU1HNMxGholNaX2s-117">
          <mxGeometry x="16.666666666666668" width="116.66666666666667" height="75" as="geometry" />
        </mxCell>
        <mxCell id="JCRJsU1HNMxGholNaX2s-120" value="" style="shape=table;html=1;whiteSpace=wrap;startSize=0;container=1;collapsible=0;childLayout=tableLayout;" vertex="1" parent="JCRJsU1HNMxGholNaX2s-117">
          <mxGeometry y="216.66666666666669" width="150" height="33.333333333333336" as="geometry" />
        </mxCell>
        <mxCell id="JCRJsU1HNMxGholNaX2s-121" value="" style="shape=partialRectangle;html=1;whiteSpace=wrap;collapsible=0;dropTarget=0;pointerEvents=0;fillColor=none;top=0;left=0;bottom=0;right=0;points=[[0,0.5],[1,0.5]];portConstraint=eastwest;" vertex="1" parent="JCRJsU1HNMxGholNaX2s-120">
          <mxGeometry width="150" height="33" as="geometry" />
        </mxCell>
        <mxCell id="JCRJsU1HNMxGholNaX2s-122" value="Demande acceptée" style="shape=partialRectangle;html=1;whiteSpace=wrap;connectable=0;fillColor=none;top=0;left=0;bottom=0;right=0;overflow=hidden;" vertex="1" parent="JCRJsU1HNMxGholNaX2s-121">
          <mxGeometry width="75" height="33" as="geometry" />
        </mxCell>
        <mxCell id="JCRJsU1HNMxGholNaX2s-123" value="Demande refusée" style="shape=partialRectangle;html=1;whiteSpace=wrap;connectable=0;fillColor=none;top=0;left=0;bottom=0;right=0;overflow=hidden;" vertex="1" parent="JCRJsU1HNMxGholNaX2s-121">
          <mxGeometry x="75" width="75" height="33" as="geometry" />
        </mxCell>
        <mxCell id="JCRJsU1HNMxGholNaX2s-158" style="edgeStyle=none;rounded=0;orthogonalLoop=1;jettySize=auto;html=1;endArrow=none;endFill=0;" edge="1" parent="1" source="JCRJsU1HNMxGholNaX2s-125" target="JCRJsU1HNMxGholNaX2s-32">
          <mxGeometry relative="1" as="geometry" />
        </mxCell>
        <mxCell id="JCRJsU1HNMxGholNaX2s-125" value="Demande de fabrication par un sous-traitant acceptée" style="ellipse;whiteSpace=wrap;html=1;" vertex="1" parent="1">
          <mxGeometry x="1030" y="1640" width="120" height="80" as="geometry" />
        </mxCell>
        <mxCell id="JCRJsU1HNMxGholNaX2s-126" value="Fabrication impossible" style="ellipse;whiteSpace=wrap;html=1;" vertex="1" parent="1">
          <mxGeometry x="1170" y="1640" width="120" height="80" as="geometry" />
        </mxCell>
        <mxCell id="JCRJsU1HNMxGholNaX2s-127" style="edgeStyle=none;rounded=0;orthogonalLoop=1;jettySize=auto;html=1;endArrow=none;endFill=0;" edge="1" parent="1" source="JCRJsU1HNMxGholNaX2s-118" target="JCRJsU1HNMxGholNaX2s-125">
          <mxGeometry relative="1" as="geometry" />
        </mxCell>
        <mxCell id="JCRJsU1HNMxGholNaX2s-128" style="edgeStyle=none;rounded=0;orthogonalLoop=1;jettySize=auto;html=1;endArrow=none;endFill=0;" edge="1" parent="1" source="JCRJsU1HNMxGholNaX2s-118" target="JCRJsU1HNMxGholNaX2s-126">
          <mxGeometry relative="1" as="geometry" />
        </mxCell>
        <mxCell id="JCRJsU1HNMxGholNaX2s-152" style="edgeStyle=none;rounded=0;orthogonalLoop=1;jettySize=auto;html=1;endArrow=none;endFill=0;" edge="1" parent="1" source="JCRJsU1HNMxGholNaX2s-160" target="JCRJsU1HNMxGholNaX2s-105">
          <mxGeometry relative="1" as="geometry">
            <mxPoint x="803.4146818491954" y="1297.6714579993927" as="sourcePoint" />
            <mxPoint x="710" y="1380" as="targetPoint" />
          </mxGeometry>
        </mxCell>
        <mxCell id="JCRJsU1HNMxGholNaX2s-159" value="Commande reçue" style="ellipse;whiteSpace=wrap;html=1;strokeWidth=3;gradientColor=none;" vertex="1" parent="1">
          <mxGeometry x="750" y="480" width="120" height="80" as="geometry" />
        </mxCell>
        <mxCell id="JCRJsU1HNMxGholNaX2s-160" value="Modèle reçu&lt;br&gt;(MR)" style="ellipse;whiteSpace=wrap;html=1;strokeWidth=3;gradientColor=none;" vertex="1" parent="1">
          <mxGeometry x="720" y="1240" width="120" height="80" as="geometry" />
        </mxCell>
        <mxCell id="JCRJsU1HNMxGholNaX2s-165" style="edgeStyle=none;rounded=0;orthogonalLoop=1;jettySize=auto;html=1;endArrow=none;endFill=0;" edge="1" parent="1" source="JCRJsU1HNMxGholNaX2s-59" target="JCRJsU1HNMxGholNaX2s-75">
          <mxGeometry relative="1" as="geometry" />
        </mxCell>
        <mxCell id="JCRJsU1HNMxGholNaX2s-166" style="edgeStyle=none;rounded=0;orthogonalLoop=1;jettySize=auto;html=1;endArrow=none;endFill=0;" edge="1" parent="1" source="JCRJsU1HNMxGholNaX2s-59" target="JCRJsU1HNMxGholNaX2s-72">
          <mxGeometry relative="1" as="geometry" />
        </mxCell>
      </root>
    </mxGraphModel>
  </diagram>
</mxfile>
